<?xml version="1.0" standalone="no"?>
<!DOCTYPE svg PUBLIC "-//W3C//DTD SVG 20010904//EN"
 "http://www.w3.org/TR/2001/REC-SVG-20010904/DTD/svg10.dtd">
<svg version="1.0" xmlns="http://www.w3.org/2000/svg"
 width="450.000000pt" height="450.000000pt" viewBox="0 0 450.000000 450.000000"
 preserveAspectRatio="xMidYMid meet">
<metadata>
Created by potrace 1.11, written by Peter Selinger 2001-2013
</metadata>
<g transform="translate(0.000000,450.000000) scale(0.100000,-0.100000)"
fill="#000000" stroke="none">
<path d="M1320 4209 c-35 -14 -69 -48 -91 -91 -18 -36 -19 -69 -19 -766 l0
-729 -81 -7 c-157 -14 -288 -64 -402 -154 -433 -341 -244 -979 321 -1088 41
-8 94 -14 118 -14 l44 0 0 -471 0 -471 26 -49 c20 -35 39 -54 69 -69 40 -20
59 -20 943 -20 744 0 908 2 935 14 39 16 82 61 96 99 8 19 11 303 11 881 l0
853 93 5 c149 9 312 74 409 165 16 15 31 22 39 18 7 -5 10 -4 6 2 -4 6 17 39
45 74 145 181 170 425 63 628 -19 35 -32 69 -28 74 3 6 1 7 -5 3 -6 -3 -21 8
-33 26 -100 140 -344 258 -534 258 l-54 0 -3 364 -3 364 -31 39 c-63 78 10 73
-1004 72 -576 0 -914 -4 -930 -10z m1864 -100 c24 -28 26 -38 26 -120 0 -49
-1 -89 -3 -89 -1 0 -20 9 -42 20 -38 20 -59 20 -915 20 -856 0 -876 0 -913
-20 -20 -11 -39 -20 -42 -20 -3 0 -5 41 -5 91 0 87 1 92 29 120 l29 29 905 0
905 0 26 -31z m-36 -269 c55 -34 62 -66 62 -278 l0 -188 -71 -17 c-181 -42
-343 -159 -436 -314 -11 -18 -23 -30 -28 -25 -5 4 -5 2 -2 -4 3 -6 -2 -33 -12
-60 -74 -195 -35 -408 106 -580 18 -23 33 -49 33 -58 0 -10 -18 -100 -41 -201
-42 -195 -42 -216 1 -230 22 -7 29 -3 295 149 l150 86 3 -686 c2 -760 4 -735
-62 -775 -30 -18 -67 -19 -896 -19 -845 0 -866 1 -897 20 -18 11 -33 25 -33
30 0 6 5 8 12 4 7 -4 8 -3 4 5 -4 6 -12 9 -17 6 -23 -15 -29 60 -27 351 l3
304 65 -38 c249 -147 349 -202 367 -202 11 0 28 9 38 20 18 20 17 25 -13 163
-17 78 -37 169 -43 202 l-12 61 51 64 c98 121 145 288 123 436 -39 261 -242
466 -528 534 l-53 12 0 569 c0 628 -1 621 62 659 32 20 48 20 898 20 850 0
866 0 898 -20z m332 -560 c41 -10 107 -35 145 -55 73 -37 195 -137 195 -160 0
-7 6 -15 13 -18 17 -6 67 -109 83 -172 29 -106 13 -248 -38 -350 -47 -92 -161
-202 -265 -254 -84 -42 -191 -64 -308 -63 l-110 0 -90 -53 c-141 -82 -285
-165 -289 -165 -1 0 15 80 35 177 21 97 35 182 32 187 -4 6 -25 34 -48 61
-144 173 -171 375 -77 562 124 245 438 377 722 303z m-2104 -771 c106 -33 182
-78 260 -154 205 -201 215 -491 24 -709 -27 -31 -50 -58 -50 -59 0 -2 18 -85
53 -253 l24 -111 -146 85 c-263 153 -237 142 -322 135 -243 -18 -492 116 -596
321 -111 219 -43 493 159 642 34 25 67 43 75 40 7 -3 12 -1 10 5 -3 14 127 66
195 78 79 15 235 4 314 -20z m868 -1947 l893 -2 36 25 37 24 0 -95 c0 -92 -1
-97 -29 -125 l-29 -29 -902 0 -902 0 -29 29 c-28 28 -29 33 -29 126 l0 96 31
-23 31 -23 892 -3z"/>
<path d="M1578 3553 c-22 -6 -30 -30 -18 -54 10 -19 23 -19 308 -17 l297 3 3
24 c7 47 -10 50 -302 49 -149 0 -278 -2 -288 -5z"/>
<path d="M2346 3544 c-9 -8 -16 -21 -16 -27 1 -32 18 -36 151 -39 l135 -3 -1
32 c0 18 -4 36 -9 40 -4 4 -61 9 -126 10 -97 2 -122 0 -134 -13z"/>
<path d="M1558 3185 c-21 -47 -1 -55 143 -55 l129 0 6 25 c12 48 -7 55 -142
55 -123 0 -125 0 -136 -25z"/>
<path d="M2032 3198 c-7 -7 -12 -19 -12 -28 0 -37 18 -40 267 -40 229 0 243 1
253 19 13 25 13 27 -6 45 -13 14 -50 16 -253 16 -171 0 -240 -3 -249 -12z"/>
<path d="M1562 2843 c-10 -20 -5 -44 12 -55 18 -12 744 -10 767 2 21 12 25 40
7 58 -9 9 -110 12 -395 12 -354 0 -383 -1 -391 -17z"/>
<path d="M1956 1705 c-19 -20 -20 -26 -3 -48 11 -15 28 -17 136 -15 105 3 126
6 135 21 8 12 8 22 0 35 -16 25 -244 31 -268 7z"/>
<path d="M2402 1708 c-7 -7 -12 -19 -12 -28 0 -38 16 -40 311 -40 245 0 288 2
299 15 10 12 10 21 2 40 l-12 25 -288 0 c-211 0 -291 -3 -300 -12z"/>
<path d="M2033 1363 c-16 -6 -17 -45 -1 -61 9 -9 78 -12 249 -12 255 0 264 2
257 52 l-3 23 -245 2 c-135 1 -251 -1 -257 -4z"/>
<path d="M2732 1358 c-6 -6 -12 -20 -12 -29 0 -34 24 -40 150 -37 104 3 125 6
134 21 8 12 8 22 0 35 -9 14 -30 17 -135 20 -88 2 -128 -1 -137 -10z"/>
<path d="M2217 1013 c-11 -11 -8 -48 5 -61 9 -9 108 -12 384 -12 325 0 375 2
388 16 21 20 20 50 0 58 -21 8 -769 8 -777 -1z"/>
<path d="M3074 3031 c-79 -36 -123 -108 -124 -202 0 -75 35 -143 108 -207 31
-27 98 -85 147 -129 50 -43 92 -81 93 -85 5 -11 40 -10 44 1 7 19 222 200 231
194 6 -3 7 -1 3 5 -3 6 3 17 14 25 12 8 31 29 44 46 13 17 27 27 31 23 5 -4 5
-2 2 4 -3 6 1 30 10 55 31 89 -5 197 -84 252 -33 24 -55 31 -111 35 -63 4 -76
2 -117 -22 l-47 -26 -42 25 c-54 31 -141 34 -202 6z m185 -96 c48 -44 73 -44
115 -2 29 29 41 34 87 35 39 2 63 -3 87 -18 56 -34 77 -115 48 -183 -15 -35
-138 -155 -241 -234 l-41 -31 -123 108 c-143 124 -165 157 -159 237 7 83 51
121 140 122 41 1 53 -4 87 -34z"/>
<path d="M959 2277 c-20 -8 -49 -23 -65 -34 -16 -12 -33 -21 -37 -21 -5 0 -12
-4 -15 -8 -4 -4 -1 -4 6 0 17 10 15 3 -8 -37 -30 -50 -35 -114 -16 -181 18
-61 63 -113 186 -216 30 -25 70 -61 91 -80 20 -20 48 -42 63 -49 24 -13 28
-13 55 13 15 15 34 26 42 24 8 -2 13 2 12 9 -3 15 112 115 122 105 5 -4 6 -2
2 4 -3 5 20 32 52 60 77 65 96 107 96 205 0 70 -3 82 -30 121 -20 28 -49 53
-85 71 -48 25 -63 28 -118 24 -46 -4 -71 -11 -94 -29 l-33 -25 -38 25 c-46 31
-133 39 -188 19z m134 -78 c12 -6 34 -24 49 -40 31 -34 46 -31 101 18 40 36
88 43 144 22 73 -28 104 -118 69 -202 -11 -26 -163 -171 -258 -246 -16 -12
-25 -8 -75 35 -32 27 -79 69 -105 94 -26 25 -55 50 -65 56 -9 6 -28 31 -41 55
-28 52 -26 121 4 162 35 48 127 71 177 46z"/>
</g>
</svg>
